<svg xmlns="http://www.w3.org/2000/svg" xmlns:xlink="http://www.w3.org/1999/xlink" width="500" zoomAndPan="magnify" viewBox="0 0 375 374.999991" height="500" preserveAspectRatio="xMidYMid meet" version="1.0"><defs><clipPath id="aa843cc523"><path d="M 214.226562 148.410156 L 288.671875 148.410156 L 288.671875 307.457031 L 214.226562 307.457031 Z M 214.226562 148.410156 " clip-rule="nonzero"/></clipPath><clipPath id="3b2cb92cac"><path d="M 136.742188 148 L 212 148 L 212 307.597656 L 136.742188 307.597656 Z M 136.742188 148 " clip-rule="nonzero"/></clipPath><clipPath id="470355f54a"><path d="M 198 117.847656 L 227 117.847656 L 227 146 L 198 146 Z M 198 117.847656 " clip-rule="nonzero"/></clipPath></defs><path fill="#3e8ae4" d="M 79.464844 51.558594 C 89.378906 59.066406 102.855469 61.523438 115.15625 64.46875 L 117.332031 91.5625 C 123.410156 90.71875 125.898438 89.480469 129.609375 89.777344 C 107.210938 98.003906 80.523438 128.519531 69.230469 149.765625 C 51.308594 183.476562 48.515625 212.207031 53.59375 253.71875 C 54.066406 252.828125 54.546875 250.425781 54.695312 250.902344 L 58.570312 229.226562 C 63.3125 179.308594 91.933594 135.035156 135.425781 110.578125 C 210.402344 68.417969 255.53125 93.988281 315.070312 124.785156 C 303.433594 107.820312 292.625 96.789062 274.292969 89.679688 C 279.546875 89.425781 294.402344 98.578125 285.097656 75.027344 C 281.371094 65.601562 281.503906 68.566406 263.792969 60.253906 C 274.496094 61.191406 305.101562 67.9375 323.832031 51.886719 C 299.753906 45.097656 219.164062 8.785156 203.199219 7.777344 C 189.453125 6.90625 102.242188 45.703125 79.464844 51.558594 Z M 79.464844 51.558594 " fill-opacity="1" fill-rule="evenodd"/><path fill="#efae4c" d="M 192.210938 363.386719 C 162.648438 350.042969 109.78125 342.992188 87.335938 271.617188 C 65.628906 202.578125 103.695312 162.324219 136.683594 128.183594 C 89.824219 143.253906 55.015625 207.757812 68.339844 267.84375 C 79.75 319.292969 129.347656 366.761719 192.210938 363.386719 Z M 192.210938 363.386719 " fill-opacity="1" fill-rule="evenodd"/><path fill="#efae4c" d="M 318.871094 116.558594 C 325.597656 112.226562 326.476562 123.015625 324.246094 104.414062 C 323.296875 96.503906 320.886719 73.207031 320.261719 63.773438 C 318.523438 68.671875 318.59375 91.023438 317.367188 97.800781 C 314.242188 115.074219 315.335938 109.996094 318.867188 116.558594 Z M 318.871094 116.558594 " fill-opacity="1" fill-rule="evenodd"/><path fill="#3e8ae4" d="M 322.0625 295.078125 C 295.390625 313.34375 261.933594 354.898438 189.828125 336.394531 C 120.082031 318.496094 105.792969 264.613281 94.039062 218.320312 C 82.433594 266.417969 118.953125 330.324219 176.753906 350.667969 C 226.25 368.089844 292.234375 350.699219 322.0625 295.078125 Z M 322.0625 295.078125 " fill-opacity="1" fill-rule="evenodd"/><path fill="#3e8ae4" d="M 257.726562 173.765625 C 262.792969 178.023438 263.449219 185.582031 259.191406 190.648438 C 254.933594 195.714844 247.375 196.371094 242.3125 192.113281 C 237.246094 187.855469 236.589844 180.296875 240.847656 175.230469 C 245.101562 170.164062 252.660156 169.507812 257.726562 173.765625 " fill-opacity="1" fill-rule="nonzero"/><path fill="#3e8ae4" d="M 271.667969 185.960938 C 271.816406 186.269531 271.78125 186.652344 271.542969 186.933594 C 271.304688 187.214844 270.9375 187.316406 270.601562 187.222656 L 270.519531 187.324219 L 267.871094 193.007812 L 264.796875 190.425781 L 269.941406 186.839844 L 270.027344 186.738281 C 269.878906 186.425781 269.914062 186.042969 270.148438 185.765625 C 270.386719 185.480469 270.757812 185.382812 271.089844 185.472656 L 275.425781 180.316406 L 272.308594 174.746094 L 273.808594 179.777344 L 270.242188 178.582031 L 264.65625 185.230469 C 265.421875 180.277344 263.664062 175.046875 259.550781 171.59375 C 255.511719 168.199219 250.171875 167.339844 245.480469 168.839844 L 250.929688 162.355469 L 246.5625 154.285156 L 267.917969 161.742188 L 278.941406 181.492188 L 276.191406 180.574219 L 271.667969 185.960938 " fill-opacity="1" fill-rule="nonzero"/><g clip-path="url(#aa843cc523)"><path fill="#3e8ae4" d="M 241.75 284.554688 C 241.75 284.554688 222.6875 279.316406 222.539062 244.652344 C 222.476562 229.863281 225.121094 218.050781 220.503906 196.625 C 215.890625 175.195312 212.796875 161.324219 215.152344 148.597656 C 215.152344 148.597656 219.394531 176.949219 241.75 190.34375 C 269.835938 207.171875 282.019531 225.441406 281.28125 247.238281 C 281.28125 247.238281 272.503906 225.503906 252.324219 219.828125 C 252.324219 219.828125 250.746094 280.859375 288.671875 307.457031 C 288.671875 307.457031 256.320312 301.808594 235.46875 249.824219 C 235.46875 249.824219 232.515625 274.210938 241.75 284.554688 " fill-opacity="1" fill-rule="nonzero"/></g><path fill="#efae4c" d="M 167.6875 173.765625 C 162.621094 178.023438 161.964844 185.582031 166.222656 190.648438 C 170.480469 195.714844 178.039062 196.371094 183.105469 192.113281 C 188.171875 187.855469 188.824219 180.296875 184.570312 175.230469 C 180.3125 170.164062 172.753906 169.507812 167.6875 173.765625 " fill-opacity="1" fill-rule="nonzero"/><path fill="#efae4c" d="M 153.75 185.960938 C 153.601562 186.269531 153.636719 186.652344 153.871094 186.933594 C 154.109375 187.214844 154.480469 187.316406 154.8125 187.222656 L 154.894531 187.324219 L 157.542969 193.007812 L 160.617188 190.425781 L 155.472656 186.839844 L 155.386719 186.738281 C 155.535156 186.425781 155.5 186.042969 155.265625 185.765625 C 155.027344 185.480469 154.65625 185.382812 154.324219 185.472656 L 149.992188 180.316406 L 153.105469 174.746094 L 151.605469 179.777344 L 155.171875 178.582031 L 160.757812 185.230469 C 159.992188 180.277344 161.753906 175.046875 165.863281 171.59375 C 169.90625 168.199219 175.242188 167.339844 179.933594 168.839844 L 174.484375 162.355469 L 178.851562 154.285156 L 157.496094 161.742188 L 146.472656 181.492188 L 149.222656 180.574219 L 153.75 185.960938 " fill-opacity="1" fill-rule="nonzero"/><g clip-path="url(#3b2cb92cac)"><path fill="#efae4c" d="M 183.664062 284.554688 C 183.664062 284.554688 202.726562 279.316406 202.875 244.652344 C 202.9375 229.863281 200.292969 218.050781 204.910156 196.625 C 209.527344 175.195312 212.617188 161.324219 210.265625 148.597656 C 210.265625 148.597656 206.023438 176.949219 183.664062 190.34375 C 155.578125 207.171875 143.394531 225.441406 144.132812 247.238281 C 144.132812 247.238281 152.910156 225.503906 173.089844 219.828125 C 173.089844 219.828125 174.671875 280.859375 136.746094 307.457031 C 136.746094 307.457031 169.097656 301.808594 189.945312 249.824219 C 189.945312 249.824219 192.902344 274.210938 183.664062 284.554688 " fill-opacity="1" fill-rule="nonzero"/></g><g clip-path="url(#470355f54a)"><path fill="#efae4c" d="M 212.195312 142.925781 L 212.628906 145.753906 L 213.011719 142.917969 C 213.761719 137.359375 218.085938 132.957031 223.632812 132.113281 L 226.460938 131.679688 L 223.625 131.296875 C 218.066406 130.546875 213.664062 126.222656 212.820312 120.679688 L 212.386719 117.847656 L 212.003906 120.683594 C 211.253906 126.242188 206.929688 130.644531 201.382812 131.488281 L 198.554688 131.921875 L 201.390625 132.304688 C 206.949219 133.054688 211.351562 137.378906 212.195312 142.925781 " fill-opacity="1" fill-rule="nonzero"/></g></svg>